PathFileType	4	(X/Y/Z)	OpenSim_Sub04_CSStiffKnee_Accel.trc
DataRate	CameraRate	NumFrames	NumMarkers	Units	OrigDataRate	OrigDataStartFrame	OrigNumFrames
100	100	20	8	m	100	3707	7413
Frame#	Time	torso_imu_offset_imu	pelvis_imu_offset_imu	tibia_r_imu_offset_imu	femur_r_imu_offset_imu	tibia_l_imu_offset_imu	femur_l_imu_offset_imu	toes_r_imu_offset_imu	toes_l_imu_offset_imu
				X1	Y1	Z1	X2	Y2	Z2	X3	Y3	Z3	X4	Y4	Z4	X5	Y5	Z5	X6	Y6	Z6	X7	Y7	Z7	X8		Y8	Z8	

3707	37.06000000	-6.81783466	-0.84991670	8.24490001	7.83479218	-0.78308679	3.05105908	7.53553586	6.85153721	0.17456311	5.73283643	-4.12492863	3.67230020	8.88074448	-3.67236430	-0.74389467	8.47354955	-1.89644983	-2.67893948	8.16947390	0.52550571	11.70148811	5.71857239	2.85516755	10.15333203
3708	37.07000000	-6.59707954	-0.90555082	8.15488659	7.63369695	-1.02678154	2.85971676	8.01247475	6.42549758	0.47656826	5.27074889	-4.09432365	3.81093107	9.04600864	-3.51760349	-0.80959575	8.41768839	-1.38241806	-2.58389214	10.61689984	0.49090047	11.10698418	5.71197635	2.88891516	10.07991712
3709	37.08000000	-6.48103596	-0.89773801	8.00291509	7.57435829	-1.28111241	2.70518586	8.61559662	6.00333905	0.90715121	4.94742548	-4.05340125	3.67809874	9.20701089	-3.41324618	-0.81920574	8.66954476	-0.83512583	-2.68444048	12.23878664	-0.13581201	10.03211149	5.67108635	2.95240919	10.13575631
3710	37.09000000	-6.36702071	-0.85991488	7.88636730	7.58392316	-1.48899431	2.63430318	8.77348299	5.93612351	1.08694663	4.69850701	-4.05652852	3.30441693	9.23890821	-3.42878038	-0.69479914	8.91717077	-0.31160476	-2.76109546	12.72092562	-0.59914190	9.06286065	5.27943408	2.99510169	10.40946273
3711	37.10000000	-6.33296753	-0.79847425	7.88577846	7.61801210	-1.71869292	2.52531533	8.44089817	5.89998390	1.52444802	4.51713771	-3.96654241	2.89717357	9.24143979	-3.56798976	-0.51548653	9.11896865	0.26331232	-2.62263812	13.92340176	-0.88176058	8.68465976	5.31147023	2.81588768	10.42778208
3712	37.11000000	-6.43083020	-0.78096684	7.94576582	7.75194236	-1.94091917	2.50188567	8.11429026	5.22443740	1.79620240	4.54221553	-3.70262720	2.80664005	9.29104852	-3.40209236	-0.27310814	9.25803663	0.68777788	-2.39058755	14.90667658	-1.14263807	8.10558994	5.58690035	2.58592509	10.41567613
3713	37.12000000	-6.52086169	-0.81447382	8.07723112	7.86427120	-1.99691467	2.53333590	8.00753607	3.82881091	1.37829039	4.72595821	-3.49128318	3.01426806	9.37776087	-3.40103328	-0.03339420	9.31535038	0.75689142	-2.18658795	15.15126790	-1.87729076	7.12351163	5.97114906	2.43163521	10.26560285
3714	37.13000000	-6.56312662	-0.87905495	8.17573358	8.09030469	-2.09950546	2.59022122	8.46698231	2.51071718	0.80098647	5.06398478	-3.49061734	3.32490765	9.37680282	-3.25222182	0.10160809	9.20941403	0.57836416	-2.15336055	15.19780632	-2.55355206	6.00229259	5.72781562	2.40907705	10.34741534
3715	37.14000000	-6.57187445	-1.02182521	8.27998801	8.26556963	-1.98845082	2.62350026	9.11606682	1.72006473	0.53382974	5.52643906	-3.76663760	3.60016594	9.42063179	-2.77916295	0.34802500	9.01058204	0.33905529	-2.13086034	16.11166270	-2.40275754	5.09313606	5.25115061	2.24272493	10.64129931
3716	37.15000000	-6.53332664	-1.14278337	8.44570184	8.37251322	-1.74446690	2.58892067	9.58905549	1.29719182	0.62291946	5.99501251	-4.05494529	3.87997492	9.59292297	-1.96672874	0.43320121	8.95484520	0.31807410	-2.13181277	16.66410386	-1.81112881	3.85479208	5.62279686	2.26648169	10.43319893
3717	37.16000000	-6.50374922	-1.19212162	8.26414640	8.59748291	-1.45025236	2.53484025	9.69171506	1.25722474	0.52123292	6.24911272	-4.39219333	4.03117154	9.79856734	-1.06316639	0.41120664	9.11333354	0.40637809	-2.15604968	16.05619843	-1.03439142	2.18821190	5.74420957	2.42071538	10.33684617
3718	37.17000000	-6.58529298	-1.25200616	8.26351043	8.71299235	-1.06059886	2.52315625	9.33438415	1.68385592	0.51327523	6.27760512	-5.01082850	3.98107579	10.09118808	-0.72923124	0.29638849	9.20990064	0.34669396	-1.99261894	16.19035296	0.03219728	0.71658316	5.62988456	2.61413676	10.51525700
3719	37.18000000	-6.80362256	-1.31793882	8.38194298	8.86993170	-0.63646460	2.49200127	8.66483106	2.43300870	0.88785247	6.32013545	-5.87440477	4.00823301	10.39007438	-0.71713787	0.16514606	9.38814408	0.40730795	-2.08652737	16.37594457	-1.29920240	-0.67905053	5.22115646	2.92209887	10.87083213
3720	37.19000000	-7.04999154	-1.46228189	8.46517076	9.06403516	-0.20016291	2.55311905	7.63942803	3.26704357	0.65981593	6.20263317	-6.90175861	4.04318100	10.66237036	-0.80363954	0.16117975	9.65342374	0.45122349	-2.40766951	17.13369407	-0.98631275	-3.67989916	5.16623044	2.66711132	10.97740672
3721	37.20000000	-7.47540429	-1.60033853	8.95277085	9.30330905	0.03060221	2.53104991	7.02874032	3.76383826	0.56625298	5.77506747	-7.58912405	4.00900133	10.72612527	-0.84152582	0.29033429	9.93417848	0.54662116	-2.59522865	19.42798924	2.18193967	-4.87391495	5.50007720	2.55067366	10.81784482
3722	37.21000000	-7.80702391	-1.59959394	9.11063576	9.56198111	0.06617839	2.39189640	7.23541647	4.48379259	0.83184350	5.37239039	-7.92506920	3.99116142	10.64912826	-1.01038321	0.45952068	10.16866989	0.75953265	-2.73477348	18.88783105	2.76775701	-6.73893622	5.56854028	2.42128291	10.92653346
3723	37.22000000	-8.16195512	-1.57000479	9.15892735	9.74922171	0.07557433	2.21347732	7.31645090	5.41238793	0.46175112	5.15122791	-8.39783008	3.90434158	10.79710366	-1.49846764	0.46182315	10.26002390	0.89307803	-2.73359835	18.64171094	2.87101535	-9.94602878	5.06825411	2.22428349	11.44931273
3724	37.23000000	-8.57827083	-1.55964846	9.32341107	9.89140085	-0.05556677	2.13668170	7.20097219	5.43307181	0.78988297	5.09967698	-9.07452086	3.59736622	11.10690470	-2.03389598	0.59711132	10.25495353	0.79406920	-2.55365641	20.74412889	4.33666784	-13.15459900	4.92992590	2.20980737	11.71959541
3725	37.24000000	-8.82029465	-1.50939846	9.46314786	10.31825259	-0.21965601	2.25992256	7.26566719	4.93692305	1.78909280	5.16300656	-9.93423210	3.11639753	11.24910717	-2.08212772	0.93204381	10.51334710	0.53416461	-2.50551063	25.25779422	2.29305692	-17.08329093	5.26608998	2.05620154	11.58405820
3726	37.25000000	-9.07649178	-1.41425762	9.60931325	10.75204909	-0.44643418	2.70315311	7.44748500	4.24480137	1.99353262	5.40357869	-10.95502165	2.63192355	11.39771781	-1.86992175	1.24953365	10.81025689	0.24598685	-2.55006567	28.12297983	6.47393620	-24.89868505	5.39145799	2.08160287	11.64132994
